<?xml version="1.0" standalone="no"?>
<!DOCTYPE svg PUBLIC "-//W3C//DTD SVG 20010904//EN"
 "http://www.w3.org/TR/2001/REC-SVG-20010904/DTD/svg10.dtd">
<svg version="1.0" xmlns="http://www.w3.org/2000/svg"
 width="1343.000000pt" height="1171.000000pt" viewBox="0 0 1343.000000 1171.000000"
 preserveAspectRatio="xMidYMid meet">

<g transform="translate(0.000000,1171.000000) scale(0.100000,-0.100000)"
fill="#000000" stroke="none">
<path d="M4620 11304 c-73 -20 -127 -53 -179 -109 -69 -75 -86 -123 -86 -240
0 -86 3 -106 24 -145 49 -93 127 -160 218 -186 50 -15 53 -17 46 -42 -5 -15
-8 -63 -7 -107 1 -144 58 -242 176 -306 l63 -34 495 -3 c435 -3 500 -1 544 13
76 25 131 69 169 133 l33 57 77 3 c42 2 77 5 77 9 0 3 -30 50 -66 105 -36 56
-74 124 -85 152 -25 68 -89 140 -153 174 l-51 27 -442 3 c-244 2 -443 4 -443
6 0 1 7 24 16 50 39 115 -8 285 -100 360 -96 79 -221 110 -326 80z m278 -207
c3 -17 -234 -307 -252 -307 -14 0 -126 121 -126 137 0 6 10 19 22 27 21 15 24
14 63 -24 l40 -39 70 87 c126 157 135 165 159 149 12 -8 22 -21 24 -30z m1028
-324 c64 -22 144 -101 169 -168 11 -28 47 -93 82 -145 51 -77 60 -95 46 -97
-10 -1 -43 -5 -74 -8 -52 -6 -56 -8 -68 -40 -15 -43 -78 -108 -133 -137 -43
-23 -44 -23 -539 -26 -479 -3 -498 -2 -551 18 -76 28 -131 79 -167 153 -36 75
-46 148 -32 219 l11 54 76 12 c96 15 162 51 227 123 l52 58 426 0 c373 1 432
-1 475 -16z"/>
<path d="M5012 10577 c-68 -38 -74 -136 -11 -181 86 -60 196 52 139 142 -30
48 -82 64 -128 39z"/>
<path d="M5342 10565 c-53 -45 -52 -133 2 -170 33 -24 90 -19 124 10 38 32 48
72 29 116 -18 44 -38 60 -85 66 -31 4 -44 0 -70 -22z"/>
<path d="M5713 10580 c-28 -11 -63 -67 -63 -98 0 -55 46 -101 102 -102 45 0
94 38 103 79 7 32 -13 88 -38 109 -21 17 -77 24 -104 12z"/>
<path d="M7279 10974 c-106 -19 -180 -48 -240 -96 -54 -42 -123 -140 -134
-188 -9 -42 -20 -37 -35 15 -7 25 -17 48 -23 52 -6 4 -8 -3 -3 -18 4 -13 10
-40 13 -59 6 -34 5 -34 -13 -18 -27 23 -92 48 -126 48 -51 0 -104 -35 -128
-86 -33 -67 -25 -214 18 -331 l30 -82 -36 -18 c-42 -21 -77 -68 -93 -126 -29
-109 53 -230 172 -252 l36 -7 11 -74 c14 -90 39 -145 96 -212 l43 -50 -35
-104 c-19 -57 -36 -105 -38 -106 -1 -2 -38 6 -81 19 -115 32 -205 31 -272 -3
-29 -16 -69 -28 -89 -28 -82 -1 -158 -22 -797 -229 l-300 -96 -782 5 c-430 3
-792 3 -805 0 -13 -3 -29 -18 -36 -32 l-12 -26 -113 40 c-310 112 -806 258
-897 265 -61 5 -69 3 -112 -26 -73 -49 -71 -104 9 -167 68 -55 117 -74 408
-161 l60 -18 3 -46 3 -46 -53 -23 c-29 -13 -97 -38 -151 -56 -116 -39 -162
-66 -182 -104 -23 -44 -18 -78 14 -111 25 -24 38 -29 79 -29 42 0 73 12 191
70 77 39 149 70 160 70 11 0 40 -19 63 -43 79 -79 192 -87 316 -23 25 13 39
13 91 4 l61 -11 -6 -52 c-5 -37 -2 -54 7 -62 8 -6 68 -20 134 -32 66 -11 167
-30 225 -41 58 -12 157 -29 220 -40 103 -17 170 -27 405 -60 104 -14 318 -38
512 -55 167 -15 175 -15 260 4 48 11 117 25 153 31 36 6 80 13 97 16 l33 5
-66 -113 c-116 -197 -206 -377 -199 -399 4 -12 -2 -29 -15 -47 -11 -15 -41
-54 -65 -88 l-44 -60 -123 -22 c-68 -12 -218 -35 -333 -52 -499 -71 -1058
-205 -1260 -303 -210 -102 -325 -258 -386 -527 -27 -114 -36 -363 -19 -520
l12 -119 -31 -40 c-68 -86 -84 -159 -44 -203 14 -16 14 -20 -1 -42 -39 -61 3
-121 108 -152 23 -8 32 -20 52 -74 13 -36 24 -79 24 -96 0 -49 139 -476 163
-503 31 -33 93 -58 195 -77 70 -13 123 -15 275 -11 103 4 187 4 187 1 0 -3 -7
-35 -17 -72 -11 -47 -24 -75 -44 -92 -26 -24 -59 -103 -59 -142 0 -19 -58
-118 -68 -117 -4 0 -32 34 -62 76 -127 176 -190 217 -291 193 -64 -16 -127
-62 -146 -108 -18 -43 -15 -68 36 -310 l33 -153 -45 -42 c-49 -46 -81 -101
-91 -158 -4 -21 -13 -42 -21 -49 -9 -7 -15 -29 -15 -50 0 -57 28 -74 170 -100
66 -13 120 -27 120 -31 0 -20 63 -109 81 -114 12 -4 19 -15 19 -32 0 -25 59
-93 81 -93 14 0 11 -26 -6 -40 -20 -16 -19 -55 2 -86 l16 -25 -29 13 c-51 23
-216 109 -326 169 -59 33 -115 59 -126 59 -10 0 -27 -9 -37 -20 -21 -23 -35
-26 -35 -7 0 8 -13 32 -29 54 -29 40 -29 40 -14 88 25 74 4 122 -125 295 -539
722 -534 716 -606 740 -47 15 -105 7 -175 -25 -107 -50 -161 -113 -161 -187 0
-19 21 -95 46 -169 25 -74 97 -284 159 -467 63 -183 123 -347 134 -365 31 -51
72 -84 118 -96 26 -7 44 -19 48 -30 10 -34 132 -139 175 -152 48 -15 50 -23 9
-35 -26 -7 -46 -26 -55 -52 0 -1 -17 5 -37 13 -51 21 -94 19 -109 -5 -9 -14
-19 -18 -38 -13 l-25 6 23 -25 c24 -26 28 -58 12 -89 -10 -18 -14 -16 -52 28
-22 27 -44 49 -49 51 -4 2 1 18 12 37 23 39 27 101 9 136 -42 78 -834 1039
-911 1103 -92 77 -258 55 -405 -54 -57 -43 -84 -90 -84 -144 0 -55 382 -1050
478 -1244 30 -60 103 -126 152 -137 15 -3 49 -31 77 -63 55 -63 189 -169 241
-193 38 -16 40 -24 10 -33 -38 -10 -46 -7 -51 16 -3 22 -4 21 -11 -4 -10 -35
-2 -68 21 -92 22 -22 637 -429 948 -627 213 -136 817 -516 893 -562 51 -31
105 -28 142 8 l32 30 19 -24 c10 -13 19 -32 19 -42 0 -70 62 -129 173 -166
116 -38 450 -132 604 -169 370 -88 1050 -193 1374 -210 102 -6 124 -4 188 15
39 12 77 19 84 15 7 -4 39 -31 72 -60 49 -42 131 -87 404 -223 385 -191 567
-271 614 -271 24 0 1 13 -92 51 -261 106 -848 398 -890 443 -27 29 -22 56 11
56 25 0 121 29 182 55 142 60 307 330 367 600 18 80 18 295 0 365 -21 86 -62
161 -117 217 -69 70 -112 81 -331 90 l-173 6 -41 40 c-67 63 -113 78 -284 88
-263 17 -448 37 -455 49 -6 10 -9 9 -12 0 -3 -9 -33 -8 -128 5 -322 43 -738
113 -831 141 -15 4 -15 10 -3 62 8 31 14 84 14 117 0 70 -31 188 -60 227 l-20
27 30 6 c22 5 69 -10 197 -60 265 -105 638 -240 758 -275 61 -17 114 -35 119
-40 5 -5 4 -22 -4 -40 -19 -45 -7 -46 22 -3 42 64 59 101 48 108 -6 3 -10 3
-10 -2 0 -4 -7 -16 -14 -26 -13 -17 -21 -15 -152 24 -129 39 -371 123 -490
170 l-52 20 23 42 c13 23 28 60 34 82 13 54 24 166 12 140 -7 -18 -9 -16 -16
14 -11 52 14 59 100 29 52 -18 206 -98 316 -164 120 -72 151 -87 132 -63 -28
34 -362 219 -449 248 -73 24 -119 17 -118 -17 1 -26 -9 -28 -26 -7 -10 12 -7
18 20 32 121 66 235 207 255 316 12 61 41 52 244 -69 97 -58 293 -164 436
-235 143 -72 262 -135 266 -141 4 -6 21 -2 47 11 23 12 47 21 53 21 7 0 20 6
28 13 25 21 101 48 151 54 25 2 61 8 80 14 50 13 65 12 52 -3 -6 -7 -31 -65
-57 -128 -25 -63 -60 -142 -76 -174 -16 -33 -29 -72 -29 -87 0 -15 -5 -31 -12
-35 -8 -5 -9 4 -4 35 9 58 -9 44 -24 -18 -12 -52 -1 -200 19 -254 18 -48 14
-66 -14 -62 -16 1 -25 -3 -25 -11 0 -9 12 -14 31 -14 21 0 37 -8 50 -24 11
-14 28 -28 39 -31 28 -9 25 -27 -3 -20 -29 8 -59 -21 -34 -31 9 -3 21 -3 27 1
5 3 10 4 10 0 0 -3 -20 -14 -44 -25 -24 -10 -47 -23 -50 -29 -4 -6 10 -3 31 6
21 9 67 22 103 29 55 11 74 10 125 -3 43 -11 89 -14 160 -11 118 6 186 29 282
95 64 44 66 44 201 59 90 10 204 14 334 12 108 -2 194 0 190 4 -14 14 -231 29
-337 23 -105 -6 -226 -19 -289 -32 l-29 -5 20 28 c11 16 30 47 41 70 20 40 21
41 119 63 54 12 136 26 182 31 46 5 86 12 89 15 22 22 -271 -12 -338 -39 -13
-5 -15 17 -15 166 0 118 -6 202 -17 263 -9 50 -18 117 -19 150 l-3 60 50 8
c27 5 189 9 359 10 242 1 342 -3 455 -17 224 -27 237 -31 392 -129 206 -130
418 -186 597 -158 91 14 189 63 318 159 119 90 179 116 264 116 56 1 73 -3
115 -29 126 -78 301 -402 434 -805 80 -240 200 -769 200 -879 0 -28 -43 -172
-56 -190 -2 -2 -32 4 -68 13 -122 30 -195 36 -276 21 -354 -63 -1186 -542
-1655 -952 l-90 -78 492 -3 491 -2 61 40 c229 152 708 397 1031 526 231 93
279 100 345 50 33 -25 212 -258 410 -533 33 -46 66 -83 73 -83 15 0 8 10 -213
310 -203 275 -240 319 -289 341 -52 24 -93 24 -155 0 l-49 -18 -23 51 c-13 27
-48 86 -77 129 -53 77 -53 78 -33 95 30 25 101 222 101 280 0 151 -143 745
-246 1026 -62 165 -222 486 -285 569 -59 78 -135 133 -196 143 -40 6 -41 8
-46 48 -3 34 0 46 23 71 103 114 109 143 80 373 -19 154 -44 338 -80 587 -37
250 -93 552 -110 585 -20 39 -58 75 -89 85 -15 4 -19 22 -24 107 -6 92 -4 104
13 123 26 28 40 69 40 118 0 69 -259 688 -425 1017 -84 166 -126 220 -199 258
-46 24 -62 26 -156 27 -95 0 -110 -3 -163 -28 -134 -66 -200 -174 -199 -327 1
-117 127 -940 163 -1065 6 -23 28 -56 50 -77 36 -34 39 -42 39 -90 0 -29 4
-68 9 -85 9 -30 7 -34 -18 -49 -62 -37 -69 -58 -156 -507 -46 -232 -99 -495
-119 -585 -20 -90 -36 -177 -36 -193 0 -35 24 -95 48 -122 13 -14 17 -39 19
-101 1 -52 9 -104 22 -144 12 -34 21 -63 21 -66 0 -2 -39 5 -86 15 -47 11
-140 26 -207 35 -167 21 -610 29 -766 15 -68 -6 -125 -10 -127 -9 -1 2 -7 57
-14 123 -20 214 -35 270 -78 286 -5 2 -11 66 -13 143 l-4 138 110 39 c239 85
444 209 485 295 21 43 22 48 7 82 -139 336 -241 572 -257 593 -10 15 -35 67
-55 115 -21 54 -45 97 -62 110 l-26 21 16 66 c21 82 21 120 2 157 -15 29 -23
32 -115 46 -25 3 -48 8 -52 11 -4 2 11 39 34 81 51 94 48 122 -12 148 -32 14
-42 25 -50 55 -6 21 -51 138 -101 261 -522 1291 -653 1624 -646 1642 3 7 63
84 134 171 185 228 284 361 386 515 49 74 92 134 96 133 5 -1 188 -79 407
-173 923 -397 1064 -453 1134 -458 81 -5 108 2 1309 337 238 67 435 121 437
121 2 0 4 14 4 30 0 36 13 38 104 14 91 -25 209 -23 270 4 95 43 139 92 216
240 36 70 40 72 155 97 103 22 190 62 237 110 64 65 61 142 -6 170 -40 17 -73
10 -150 -34 -33 -19 -67 -31 -91 -31 l-37 0 53 58 c106 115 249 364 249 432 0
77 -68 105 -125 53 -17 -16 -61 -78 -99 -140 -68 -109 -155 -228 -162 -220 -4
4 17 60 86 222 84 201 100 244 111 295 21 96 -5 160 -65 160 -57 -1 -65 -14
-146 -215 -56 -141 -153 -341 -177 -365 -13 -13 -15 -13 -9 5 14 50 26 202 26
331 l0 142 50 142 c28 78 50 150 50 160 0 17 -37 18 -927 13 -511 -3 -931 -8
-934 -12 -4 -3 -40 -96 -82 -206 -41 -110 -112 -293 -157 -407 l-82 -208 -62
0 c-33 0 -158 -9 -276 -20 -118 -11 -279 -20 -356 -20 -78 0 -165 -4 -194 -10
l-52 -10 -227 119 c-308 162 -430 221 -458 221 -40 0 -40 17 -2 161 9 35 11
36 64 42 120 12 230 93 288 210 15 31 36 96 48 144 11 48 29 97 39 108 55 61
87 202 62 274 -9 24 -8 41 3 72 8 23 15 65 15 94 l0 52 45 13 c134 37 150 200
31 316 -38 37 -72 58 -127 79 -41 16 -78 32 -82 35 -8 7 100 60 122 60 6 0 11
11 11 24 0 30 -66 91 -129 119 -146 65 -468 -37 -624 -197 -44 -45 -44 -44 -5
29 31 59 87 115 144 144 49 25 216 71 262 71 20 0 31 4 27 10 -8 12 -20 12
-116 -6z m-468 -310 c45 -25 67 -50 54 -62 -3 -3 -28 5 -57 19 -93 44 -152 30
-199 -46 -23 -37 -27 -9 -4 34 42 82 119 102 206 55z m657 -313 c42 -21 96
-44 120 -51 41 -13 42 -14 42 -57 0 -23 -2 -43 -4 -43 -3 0 -21 9 -41 21 -24
14 -44 19 -61 15 -37 -10 -24 -30 26 -38 90 -15 118 -61 97 -161 -7 -32 -15
-58 -20 -58 -4 -1 -26 2 -48 6 -47 8 -129 -2 -129 -16 0 -5 16 -9 35 -9 33 0
35 -2 35 -35 0 -65 74 -69 87 -4 3 16 9 29 14 29 5 0 9 -1 9 -2 -3 -42 -31
-163 -39 -171 -18 -18 -79 -13 -108 9 -82 61 -96 248 -27 350 14 20 23 41 21
47 -7 21 -57 -60 -70 -114 -9 -34 -20 -55 -31 -57 -14 -3 -16 8 -16 81 0 99
-12 140 -46 156 -31 14 -44 14 -44 1 0 -5 9 -10 20 -10 36 0 53 -58 48 -168
-3 -87 -8 -107 -36 -165 -39 -78 -76 -109 -141 -114 -140 -12 -209 178 -115
320 13 20 20 37 16 37 -12 0 -37 -29 -56 -67 l-16 -32 -65 37 c-61 35 -64 39
-65 74 0 32 3 37 30 43 36 8 66 43 82 96 12 42 19 47 36 26 6 -7 34 -24 62
-37 l51 -24 -26 -24 c-15 -13 -25 -26 -23 -28 2 -2 26 8 53 21 26 14 64 25 82
25 56 0 111 35 135 85 12 25 28 45 35 45 7 0 48 -17 91 -39z m-722 -186 c16
-13 41 -44 55 -69 27 -52 36 -56 45 -21 3 14 9 25 11 25 12 0 113 -62 120 -73
4 -6 6 -28 4 -48 -6 -83 40 -168 106 -195 102 -43 221 29 252 151 9 34 16 46
28 43 13 -2 17 -18 19 -78 1 -41 10 -92 19 -114 23 -54 14 -70 -33 -61 -25 4
-34 3 -27 -4 19 -18 59 -22 80 -7 19 14 19 15 2 63 -23 66 -21 74 7 32 29 -42
95 -73 137 -64 l27 6 -15 -68 c-34 -148 -103 -253 -205 -308 -44 -24 -68 -30
-138 -33 -72 -3 -95 0 -152 21 -177 64 -294 181 -334 332 -8 28 -14 71 -14 98
0 46 -1 47 -25 41 -37 -9 -109 21 -144 61 -28 32 -51 89 -51 125 0 36 23 93
52 125 50 58 113 65 174 20z m948 -143 c9 -57 -42 -228 -61 -208 -8 7 39 246
48 246 3 0 9 -17 13 -38z m-749 -606 c36 -22 67 -51 85 -79 15 -24 36 -53 47
-63 34 -33 73 -115 73 -154 0 -32 -7 -44 -53 -87 -84 -80 -166 -92 -248 -38
-39 25 -89 111 -89 151 0 34 18 74 33 74 9 0 27 42 51 115 20 63 38 115 40
115 2 0 29 -15 61 -34z m4319 -20 c19 -53 -27 -189 -205 -593 -18 -41 -20 -55
-10 -66 20 -25 103 74 227 273 66 106 97 140 128 140 56 0 60 -57 12 -155 -75
-155 -240 -383 -278 -384 -20 -1 -22 -9 -9 -30 13 -20 132 3 184 36 123 78
222 4 130 -98 -50 -55 -138 -98 -252 -121 -52 -10 -98 -21 -102 -24 -4 -2 -31
-47 -60 -99 -66 -120 -130 -187 -201 -211 -71 -25 -174 -23 -261 3 -37 12 -76
19 -86 16 -21 -5 -17 -17 -77 259 l-28 127 37 78 c47 99 54 151 33 232 -20 80
-20 120 1 143 34 38 94 14 128 -51 19 -37 39 -165 31 -202 -6 -31 1 -59 15
-59 4 0 6 6 3 13 -3 8 2 34 11 58 94 256 114 350 124 557 6 136 9 156 26 168
42 31 77 9 96 -59 14 -51 6 -352 -11 -445 -13 -68 -9 -82 18 -66 24 15 142
252 215 434 49 121 67 157 87 167 31 15 60 -1 74 -41z m-1177 -99 c103 -113
34 -379 -130 -498 -31 -23 -51 -29 -90 -29 -44 0 -54 4 -87 38 -73 73 -76 193
-6 337 82 170 230 242 313 152z m-7257 -191 c385 -115 465 -140 620 -195 l165
-59 0 -104 c-1 -81 -26 -262 -39 -275 -1 -1 -28 5 -59 13 -57 15 -60 14 -125
-12 -130 -52 -213 -42 -282 32 -30 33 -48 44 -70 44 -16 0 -93 -31 -171 -70
-161 -79 -203 -87 -244 -45 -14 13 -25 36 -25 51 0 46 48 78 213 138 162 60
254 107 264 133 9 23 -27 49 -95 68 -291 81 -424 133 -484 190 -77 72 -3 64
244 -26 121 -44 138 -46 138 -21 0 13 -38 30 -173 75 -94 32 -185 58 -200 58
-18 0 -27 4 -24 12 2 7 10 12 18 12 8 0 20 8 28 19 21 29 118 16 301 -38z
m5970 -338 c-61 -162 -149 -373 -157 -373 -14 0 -713 358 -713 366 0 13 63 18
230 19 91 1 239 9 330 19 91 10 202 19 247 20 l83 1 -20 -52z m-5775 20 c30
-14 32 -29 5 -46 -27 -17 -40 -8 -40 29 0 33 0 33 35 17z m2421 -1159 c24 -6
44 -14 44 -18 0 -12 -15 -28 -30 -33 -10 -3 -8 -6 8 -10 13 -4 22 -2 22 5 1
37 15 39 109 17 91 -22 93 -23 86 -48 -8 -32 -118 -330 -190 -518 -30 -77 -55
-155 -55 -173 0 -79 110 -124 167 -68 13 13 49 100 91 222 98 280 142 412 142
425 0 17 -17 11 -23 -7 -3 -10 -39 -115 -80 -233 -41 -118 -87 -251 -102 -295
-15 -44 -35 -88 -43 -97 -35 -41 -131 -1 -132 54 0 9 26 86 59 170 32 84 89
236 127 338 37 102 70 188 73 192 3 4 34 0 69 -9 47 -12 62 -19 58 -30 -4 -8
-9 -26 -12 -40 -10 -39 19 -24 30 16 7 23 14 31 26 28 9 -2 98 -23 197 -47
l182 -43 6 -41 c18 -108 124 -211 248 -240 46 -11 30 0 -35 25 -75 28 -140 85
-174 151 -23 46 -32 98 -16 98 4 0 29 -6 56 -13 42 -11 49 -17 50 -38 3 -56
78 -118 144 -119 18 0 27 -9 35 -32 7 -18 146 -368 311 -778 361 -901 387
-968 390 -997 3 -26 24 -53 41 -53 20 0 65 -40 65 -59 0 -9 -20 -50 -45 -91
-24 -41 -45 -82 -45 -91 0 -26 32 -48 80 -54 l45 -5 -47 15 c-70 23 -62 39 15
30 57 -7 97 -26 97 -46 0 -5 -15 -6 -32 -3 l-33 5 35 -13 c44 -16 48 -38 21
-128 -27 -87 -27 -89 8 -101 24 -8 34 -23 54 -77 14 -37 28 -74 31 -82 6 -14
-4 -15 -76 -8 -138 13 -487 -24 -644 -68 -16 -4 -23 0 -27 17 -7 27 -21 18
-22 -13 0 -17 -11 -24 -60 -38 -198 -56 -441 -181 -587 -302 -34 -28 -49 -36
-53 -26 -2 7 -61 227 -130 488 -123 459 -224 829 -382 1395 -41 149 -87 312
-101 363 -23 84 -37 108 -37 65 0 -12 -17 -20 -60 -29 -370 -79 -1032 -228
-1037 -233 -5 -4 20 -52 54 -106 99 -160 296 -490 294 -492 -1 -1 -22 3 -46 8
-218 49 -517 50 -707 3 -17 -5 -22 0 -28 25 -9 43 -29 40 -21 -3 6 -32 5 -35
-26 -41 -181 -40 -474 -183 -600 -293 -41 -36 -45 -34 -72 40 -17 46 -36 70
-52 67 -45 -8 -104 35 -104 75 0 36 49 72 130 97 100 30 110 39 63 53 -16 5
-23 3 -23 -6 0 -15 -94 -48 -135 -48 -34 0 -59 40 -50 79 3 17 29 61 56 98 34
47 48 74 44 88 -30 114 -30 446 0 585 54 247 141 390 302 493 200 130 741 262
1566 383 151 22 193 25 208 16 15 -10 19 -9 19 0 0 12 103 162 137 201 19 20
21 20 79 6z m1034 -253 c44 -13 58 -28 75 -83 5 -19 2 -23 -15 -23 -30 0 -97
37 -110 59 -12 23 -13 61 -2 61 4 0 27 -6 52 -14z m-974 -1002 c23 -82 97
-347 164 -589 67 -242 137 -496 155 -565 201 -746 257 -965 265 -1025 5 -38
41 -182 80 -320 61 -220 73 -253 100 -277 55 -51 219 -82 394 -76 l100 3 28
-85 c34 -105 34 -121 4 -148 -47 -40 -52 -86 -27 -253 13 -82 21 -153 18 -156
-4 -3 -59 -16 -124 -29 -81 -17 -145 -37 -205 -65 l-87 -42 -188 92 c-212 104
-396 203 -558 301 -148 90 -156 94 -189 92 -38 -3 -56 -19 -56 -48 0 -23 -2
-22 -35 14 -30 33 -33 43 -26 68 4 16 4 44 -1 62 -9 35 -6 31 -288 287 -102
92 -195 177 -207 189 l-23 21 21 42 c27 55 17 91 -33 116 l-35 17 -49 302
c-27 166 -54 307 -60 313 -7 6 -18 60 -26 119 l-15 108 61 26 c211 90 339 171
371 233 22 41 19 62 -20 138 -43 86 -241 419 -265 446 -10 11 -42 61 -71 110
-29 50 -106 177 -171 283 -66 107 -117 199 -115 206 3 6 29 17 58 23 30 7 266
59 524 117 259 57 475 103 480 102 6 -1 29 -70 51 -152z m3537 -92 c56 -26 96
-71 150 -170 134 -243 467 -1019 467 -1086 0 -75 -50 -139 -156 -201 -147 -86
-439 -97 -657 -24 -126 42 -128 46 -217 624 -77 494 -84 584 -56 663 36 100
122 180 225 209 61 17 189 9 244 -15z m-4453 -582 c63 -11 123 -23 133 -26 9
-3 63 -83 118 -177 56 -95 112 -189 125 -209 13 -21 24 -40 24 -42 0 -3 -15 1
-32 9 -47 19 -170 42 -268 50 -161 12 -462 -26 -710 -91 -280 -73 -543 -199
-598 -286 l-18 -28 -62 193 c-34 107 -62 205 -62 220 0 64 273 235 503 316 95
33 274 77 372 91 98 14 347 4 475 -20z m-33 -685 c8 -49 12 -102 10 -117 -2
-15 1 -29 7 -31 14 -5 -19 -43 -56 -65 -16 -9 -28 -20 -28 -24 0 -16 29 -7 60
18 17 15 32 25 34 23 3 -4 26 -176 26 -198 0 -19 -104 -116 -173 -161 l-61
-40 -13 23 c-12 22 -12 22 -13 -6 0 -23 -7 -31 -45 -47 -25 -11 -69 -22 -98
-25 -28 -4 -64 -8 -79 -10 -17 -2 -31 3 -36 11 -5 9 -40 22 -78 31 -38 8 -71
17 -73 19 -5 4 30 107 40 119 5 5 9 0 9 -13 0 -51 18 -15 40 79 22 92 26 100
44 94 52 -14 76 -17 76 -7 0 5 -20 15 -45 21 l-45 11 0 88 c0 48 -3 117 -6
153 l-7 65 65 22 c57 18 176 43 263 55 17 3 61 4 99 3 l70 -1 13 -90z m3024
-365 c36 -10 38 -13 104 -178 37 -92 85 -207 106 -256 22 -49 39 -93 39 -97 0
-3 -19 0 -42 8 -132 46 -410 39 -687 -17 -373 -75 -738 -238 -838 -372 -15
-22 -24 -27 -27 -17 -23 71 -126 449 -126 462 0 43 192 184 366 267 198 95
451 169 664 195 128 16 392 19 441 5z m2093 -11 c15 -11 35 -38 46 -59 24 -47
122 -632 175 -1048 41 -321 40 -341 -20 -424 -45 -62 -68 -75 -156 -94 -59
-13 -107 -15 -234 -9 -480 19 -859 101 -948 206 -58 67 -60 88 -21 256 18 82
74 352 123 601 50 254 96 464 105 477 18 28 64 54 98 57 13 1 67 -15 121 -36
54 -20 121 -41 149 -46 136 -26 272 2 418 84 52 30 100 55 106 55 6 1 23 -8
38 -20z m-5019 -170 l18 -120 -24 -16 c-59 -40 -127 -121 -144 -173 -17 -52
-17 -74 -2 -229 2 -23 -9 -28 -188 -93 -266 -95 -439 -148 -489 -148 l-42 0 4
64 c3 43 -1 81 -12 112 -19 57 -19 54 -1 54 29 0 197 212 265 336 l41 74 43 0
c65 0 189 35 266 76 61 32 207 145 225 174 15 24 23 3 40 -111z m-2240 77 c19
-8 47 -28 61 -43 68 -72 624 -826 639 -868 27 -70 11 -113 -76 -197 -76 -74
-192 -138 -287 -157 -66 -14 -176 -14 -221 -1 -39 11 -86 52 -108 94 -41 79
-333 947 -333 990 0 65 88 149 189 180 60 19 94 19 136 2z m1174 4 c19 -5 48
-22 64 -37 27 -26 112 -134 165 -210 l22 -32 -25 -37 c-32 -47 -89 -109 -145
-156 -33 -29 -52 -38 -80 -38 -20 0 -60 -7 -89 -16 -29 -8 -54 -14 -56 -12 -5
6 -75 334 -80 378 -9 71 32 123 123 156 45 16 58 17 101 4z m424 -176 c48 -16
58 -32 33 -53 -10 -8 -26 -6 -67 11 -30 12 -55 22 -57 23 -1 1 0 10 4 19 8 20
28 20 87 0z m-5 -71 c27 -6 27 -13 1 -57 l-21 -35 -39 24 c-21 14 -42 25 -46
25 -5 0 -14 4 -22 9 -11 7 -10 14 8 40 l22 31 37 -16 c20 -9 47 -19 60 -21z
m-2499 -71 c87 -64 921 -1080 936 -1140 15 -61 -103 -212 -237 -303 -86 -59
-191 -105 -280 -123 -93 -19 -115 -19 -195 -3 -76 16 -136 57 -169 114 -75
126 -494 1199 -494 1262 0 18 6 44 14 59 28 54 154 134 240 152 63 14 155 5
185 -18z m2426 -14 c40 -26 42 -34 16 -67 l-18 -24 -45 27 c-25 14 -52 26 -61
26 -21 0 -21 5 1 35 22 31 62 32 107 3z m-28 -104 c5 -14 -125 -174 -142 -174
-6 0 -34 21 -62 48 l-50 47 42 33 c23 17 46 32 52 32 5 0 30 -13 56 -30 28
-17 47 -24 47 -17 0 6 -21 25 -46 41 l-45 29 21 22 22 23 50 -21 c27 -11 52
-26 55 -33z m-230 -130 c49 -37 86 -121 91 -204 5 -98 9 -96 -165 -76 -163 20
-283 42 -296 55 -15 15 20 113 54 154 33 40 104 81 166 97 57 14 110 5 150
-26z m3562 -113 c8 -12 31 -373 31 -479 l0 -63 -72 -34 c-52 -25 -75 -32 -84
-24 -8 6 -50 10 -101 8 -120 -3 -160 11 -174 66 -6 22 -23 83 -39 135 -16 52
-38 131 -50 175 l-22 79 23 20 c58 47 203 100 359 130 41 7 122 0 129 -13z
m-2397 -109 c265 -245 353 -325 392 -358 104 -86 94 -142 -53 -303 -39 -43
-91 -89 -115 -102 l-45 -23 -38 32 c-21 17 -135 102 -253 189 -118 87 -243
179 -276 205 -34 27 -65 48 -68 48 -4 0 -29 18 -57 40 -28 22 -57 40 -64 40
-15 0 -75 68 -75 85 0 5 80 36 178 68 97 33 227 76 287 97 61 20 113 38 117
39 3 0 35 -25 70 -57z m-658 -177 c21 -32 21 -32 -18 -37 -29 -3 -37 0 -45 20
-6 13 -9 28 -6 33 12 18 53 9 69 -16z m-124 -3 c0 -20 -98 -116 -144 -139
-117 -60 -305 -7 -344 98 l-10 25 201 0 c118 0 219 4 242 11 51 14 55 15 55 5z
m181 -64 c19 -6 50 -24 70 -40 20 -15 41 -28 47 -28 6 0 12 -4 14 -8 5 -12
301 -234 453 -340 72 -50 146 -107 166 -126 37 -35 59 -94 59 -154 0 -53 -30
-130 -70 -181 l-40 -50 -82 34 c-131 56 -170 57 -226 10 -26 -21 -36 -24 -69
-17 -31 6 -42 15 -58 47 -44 86 -40 83 -388 292 -133 79 -264 162 -292 183
-114 88 -132 130 -56 130 68 0 225 97 331 204 58 60 78 66 141 44z m-946 -132
c11 -7 99 -55 195 -106 366 -194 888 -500 948 -555 72 -67 103 -253 63 -385
-17 -54 -26 -70 -37 -66 -8 3 -43 11 -77 17 -54 10 -67 9 -95 -5 -17 -9 -39
-27 -48 -41 -14 -22 -14 -27 0 -56 18 -37 13 -46 -28 -51 -28 -3 -29 -1 -56
82 -55 176 -66 185 -351 304 -123 51 -354 150 -512 220 -159 69 -345 149 -413
177 -67 28 -128 57 -135 65 -16 20 -5 40 28 48 51 13 178 104 361 259 50 43
92 85 92 93 0 18 39 18 65 0z m593 -38 c-3 -7 -13 -15 -24 -17 -16 -3 -17 -1
-5 13 16 19 34 21 29 4z m3436 -50 c16 -37 32 -158 41 -298 4 -52 18 -187 31
-299 29 -232 25 -292 -25 -398 -64 -135 -227 -208 -445 -202 -102 4 -117 7
-179 37 -80 40 -120 88 -138 165 -10 46 -9 61 10 122 11 39 32 87 46 107 14
20 25 41 25 46 0 5 15 29 34 53 21 27 45 78 61 132 30 96 30 115 1 312 -19
121 -16 161 14 193 20 21 21 21 68 3 32 -12 45 -22 42 -32 -7 -20 -12 -479 -6
-504 12 -48 134 -63 181 -22 34 29 43 96 47 339 l3 186 68 33 c38 19 73 39 79
46 17 21 28 15 42 -19z m-226 -50 c7 -7 12 -41 12 -84 l0 -72 -42 -4 c-24 -2
-64 -2 -90 0 l-48 5 0 71 c0 43 5 77 12 84 16 16 140 16 156 0z m12 -283 l0
-96 -92 3 -93 3 -3 79 c-2 44 -1 85 2 93 4 9 29 13 96 13 l90 0 0 -95z m-4279
-49 c112 -46 283 -119 379 -161 96 -42 319 -137 495 -211 284 -120 324 -139
357 -175 86 -94 158 -412 144 -632 -16 -233 -114 -467 -250 -596 -63 -59 -86
-63 -142 -25 -21 15 -73 48 -114 74 -453 283 -799 501 -1014 643 -450 293
-693 456 -705 471 -15 17 -7 36 15 36 24 0 115 49 185 101 182 135 400 418
386 503 -6 38 7 56 38 56 12 0 113 -38 226 -84z m4262 -121 c-2 -62 -26 -85
-87 -85 -66 0 -86 20 -86 86 l0 55 88 -3 87 -3 -2 -50z m-323 -23 c0 -10 -7
-27 -15 -38 -13 -17 -14 -16 -5 16 6 19 10 36 10 37 0 2 2 3 5 3 3 0 5 -8 5
-18z m-39 -85 c-10 -9 -11 -8 -5 6 3 10 9 15 12 12 3 -3 0 -11 -7 -18z m-2055
-84 c25 -33 17 -45 -16 -28 -30 15 -36 26 -23 38 11 12 25 8 39 -10z m-167
-363 c409 -114 1037 -210 1631 -250 224 -15 273 -39 370 -180 128 -188 199
-438 184 -655 -15 -218 -74 -403 -157 -491 -53 -56 -96 -78 -217 -112 -67 -18
-229 -7 -580 39 -547 71 -945 153 -1386 285 -213 64 -254 81 -283 122 l-20 29
24 11 c14 7 40 25 58 42 17 17 60 53 94 81 74 59 123 123 164 214 125 276 84
604 -100 808 l-35 39 33 30 c40 35 51 35 220 -12z m-166 -170 c21 -34 32 -60
25 -60 -7 1 -47 9 -88 19 -60 14 -76 22 -78 38 -3 23 10 36 53 51 47 16 48 16
88 -48z m-255 -980 l27 0 -25 -20 c-27 -21 -50 -26 -50 -11 0 5 -3 17 -7 27
-5 14 -3 16 11 11 10 -4 30 -7 44 -7z m6385 -101 c43 -11 47 -27 14 -57 l-23
-22 -37 43 c-20 24 -40 47 -44 52 -8 8 14 4 90 -16z m-3968 -449 c3 -5 2 -10
-4 -10 -5 0 -13 5 -16 10 -3 6 -2 10 4 10 5 0 13 -4 16 -10z"/>
<path d="M7120 10051 c-47 -5 -52 -8 -35 -17 11 -7 34 -9 52 -7 28 5 31 3 26
-16 -10 -37 5 -71 31 -71 28 0 52 25 61 63 5 19 12 26 22 23 22 -9 36 3 22 20
-12 15 -72 16 -179 5z"/>
<path d="M6627 10091 c-15 -17 -37 -56 -37 -65 0 -3 5 -6 10 -6 6 0 10 6 10
13 0 21 36 49 57 45 10 -1 25 -18 33 -35 17 -37 35 -44 25 -10 -19 61 -70 91
-98 58z"/>
<path d="M7140 9695 c0 -42 57 -95 109 -102 32 -4 42 -3 37 5 -4 7 -18 12 -31
12 -27 0 -95 61 -95 85 0 7 -4 17 -10 20 -6 4 -10 -5 -10 -20z"/>
<path d="M11145 9210 c3 -5 8 -10 11 -10 2 0 4 5 4 10 0 6 -5 10 -11 10 -5 0
-7 -4 -4 -10z"/>
<path d="M2765 8540 c-3 -5 1 -10 10 -10 9 0 13 5 10 10 -3 6 -8 10 -10 10 -2
0 -7 -4 -10 -10z"/>
<path d="M5343 7535 c17 -13 96 -29 104 -22 2 2 -24 11 -59 19 -44 11 -57 12
-45 3z"/>
<path d="M5686 7414 c-8 -22 -7 -34 3 -34 12 0 21 39 11 45 -4 3 -11 -2 -14
-11z"/>
<path d="M5636 7224 c-3 -9 -6 -25 -6 -37 1 -22 1 -22 15 -3 17 22 20 56 6 56
-5 0 -12 -7 -15 -16z"/>
<path d="M5577 7113 c-4 -3 -7 -16 -7 -27 1 -21 1 -21 15 -2 8 11 15 23 15 28
0 10 -14 11 -23 1z"/>
<path d="M4698 6948 c-60 -13 -65 -32 -5 -23 56 9 117 25 117 30 0 8 -61 4
-112 -7z"/>
<path d="M4487 6904 c-107 -26 -150 -43 -108 -44 36 0 241 52 241 62 0 12 -24
9 -133 -18z"/>
<path d="M4281 6842 c-36 -14 -50 -26 -38 -34 7 -4 107 35 107 43 0 13 -18 10
-69 -9z"/>
<path d="M4155 6793 c-16 -9 -32 -19 -35 -22 -3 -3 -22 -14 -42 -25 -40 -20
-89 -66 -70 -66 6 0 32 15 58 33 54 38 58 40 107 61 20 8 37 20 37 26 0 14
-20 12 -55 -7z"/>
<path d="M3939 6633 c-65 -72 -120 -175 -101 -187 4 -2 21 21 36 53 15 32 47
80 72 108 24 28 44 54 44 57 0 15 -21 3 -51 -31z"/>
<path d="M3815 6403 c-21 -51 -12 -347 11 -385 14 -22 21 7 12 49 -12 62 -15
256 -5 311 7 42 -4 58 -18 25z"/>
<path d="M6090 6336 c0 -15 82 -157 88 -152 3 3 -10 34 -28 68 -32 62 -60 101
-60 84z"/>
<path d="M6180 6165 c0 -12 24 -55 32 -55 11 0 10 4 -4 35 -9 21 -28 35 -28
20z"/>
<path d="M6232 6060 c10 -30 25 -46 34 -37 8 7 -25 67 -36 67 -5 0 -5 -13 2
-30z"/>
<path d="M6270 5993 c0 -14 41 -75 46 -70 7 6 -28 77 -38 77 -4 0 -8 -3 -8 -7z"/>
<path d="M3835 5980 c3 -5 8 -10 11 -10 2 0 4 5 4 10 0 6 -5 10 -11 10 -5 0
-7 -4 -4 -10z"/>
<path d="M3850 5935 c0 -26 31 -138 41 -149 20 -22 19 7 -1 76 -22 75 -40 107
-40 73z"/>
<path d="M6320 5901 c0 -17 33 -81 42 -81 11 0 10 5 -6 44 -14 34 -36 56 -36
37z"/>
<path d="M6370 5786 c0 -15 18 -31 26 -23 7 7 -7 37 -17 37 -5 0 -9 -6 -9 -14z"/>
<path d="M6400 5729 c0 -6 19 -52 41 -103 23 -50 62 -143 86 -206 47 -121 63
-149 63 -112 0 21 -77 219 -140 360 -30 65 -50 90 -50 61z"/>
<path d="M6593 5254 c9 -45 49 -130 54 -116 3 7 -5 40 -17 73 -25 65 -47 91
-37 43z"/>
<path d="M6647 5114 c-8 -8 18 -77 31 -82 16 -5 15 11 -2 53 -15 36 -18 39
-29 29z"/>
<path d="M6684 4984 c3 -9 6 -18 6 -20 0 -2 5 -4 10 -4 6 0 10 9 10 20 0 12
-7 20 -16 20 -11 0 -14 -5 -10 -16z"/>
<path d="M6700 4941 c0 -6 7 -29 16 -51 21 -52 39 -38 21 15 -13 36 -37 60
-37 36z"/>
<path d="M6744 4806 c20 -82 66 -174 66 -134 0 29 -47 152 -60 156 -9 3 -11
-2 -6 -22z"/>
<path d="M4433 4753 c-32 -16 -44 -33 -23 -33 21 0 71 31 65 40 -4 6 -7 10 -8
9 -1 0 -17 -8 -34 -16z"/>
<path d="M4338 4718 c-30 -10 -38 -28 -14 -28 27 0 67 20 61 30 -7 12 -11 12
-47 -2z"/>
<path d="M4177 4694 c-12 -12 4 -24 31 -24 37 0 72 11 72 21 0 10 -93 12 -103
3z"/>
<path d="M5770 2565 c0 -2 23 -16 51 -31 28 -14 48 -20 44 -15 -3 6 -24 20
-45 31 -40 21 -50 24 -50 15z"/>
<path d="M6595 2524 c-11 -17 -12 -25 -4 -22 6 2 16 14 20 26 11 29 5 28 -16
-4z"/>
<path d="M5934 2475 c19 -14 19 -15 1 -35 -26 -29 -3 -25 25 5 l23 24 -27 11
c-37 14 -45 12 -22 -5z"/>
</g>
</svg>
